<svg xmlns="http://www.w3.org/2000/svg" width="204mm" height="172mm" viewBox="0 0 204 172"><rect width="204" height="172" fill="white"/><rect x="12" y="12" width="18" height="18" fill="black"/><rect x="48" y="12" width="18" height="18" fill="black"/><rect x="84" y="12" width="18" height="18" fill="black"/><rect x="120" y="12" width="18" height="18" fill="black"/><rect x="156" y="12" width="18" height="18" fill="black"/><rect x="30" y="30" width="18" height="18" fill="black"/><rect x="66" y="30" width="18" height="18" fill="black"/><rect x="102" y="30" width="18" height="18" fill="black"/><rect x="138" y="30" width="18" height="18" fill="black"/><rect x="174" y="30" width="18" height="18" fill="black"/><rect x="12" y="48" width="18" height="18" fill="black"/><rect x="48" y="48" width="18" height="18" fill="black"/><rect x="84" y="48" width="18" height="18" fill="black"/><rect x="120" y="48" width="18" height="18" fill="black"/><rect x="156" y="48" width="18" height="18" fill="black"/><rect x="30" y="66" width="18" height="18" fill="black"/><rect x="66" y="66" width="18" height="18" fill="black"/><rect x="102" y="66" width="18" height="18" fill="black"/><rect x="138" y="66" width="18" height="18" fill="black"/><rect x="174" y="66" width="18" height="18" fill="black"/><rect x="12" y="84" width="18" height="18" fill="black"/><rect x="48" y="84" width="18" height="18" fill="black"/><rect x="84" y="84" width="18" height="18" fill="black"/><rect x="120" y="84" width="18" height="18" fill="black"/><rect x="156" y="84" width="18" height="18" fill="black"/><rect x="30" y="102" width="18" height="18" fill="black"/><rect x="66" y="102" width="18" height="18" fill="black"/><rect x="102" y="102" width="18" height="18" fill="black"/><rect x="138" y="102" width="18" height="18" fill="black"/><rect x="174" y="102" width="18" height="18" fill="black"/><rect x="12" y="120" width="18" height="18" fill="black"/><rect x="48" y="120" width="18" height="18" fill="black"/><rect x="84" y="120" width="18" height="18" fill="black"/><rect x="120" y="120" width="18" height="18" fill="black"/><rect x="156" y="120" width="18" height="18" fill="black"/><rect x="12" y="12" width="180" height="126" fill="none" stroke="black" stroke-width="0.2"/><text x="12" y="150" font-family="sans-serif" font-size="4.5">Checkerboard: 9x6 inner corners, 18mm squares. PRINT AT 100%% (no fit-to-page). Tape FLAT to a rigid board. Then MEASURE one square with a ruler and use that mm value in calibration.</text></svg>